<svg width="18" height="22" viewBox="0 0 18 22" fill="none" xmlns="http://www.w3.org/2000/svg">
<path d="M17.3049 10.2862C17.1703 9.10222 16.0643 8.26306 14.8727 8.26306H8.92246C9.42814 7.35759 9.69956 4.79654 9.68753 3.75035C9.66757 2.01861 8.23346 0.630859 6.50167 0.630859H5.87188C5.45004 0.630859 5.10864 0.972211 5.10864 1.3941C5.10864 3.159 4.42142 6.3446 3.12533 7.64074C2.25296 8.51311 1.50719 8.82922 0.529297 9.31794V20.77C2.02648 21.269 3.92742 22.001 6.82484 22.001H11.8174C13.4625 22.001 14.7437 20.4775 14.1062 18.8677C15.0774 18.6031 15.7937 17.7124 15.7937 16.6585C15.7937 16.3611 15.7363 16.0764 15.6327 15.8148C17.2693 15.3689 17.8717 13.348 16.7358 12.0792C17.1531 11.6129 17.3833 10.9752 17.3049 10.2862Z" fill="white"/>
</svg>
