<svg width="41" height="41" viewBox="0 0 41 41" fill="none" xmlns="http://www.w3.org/2000/svg">
<rect width="41" height="41" rx="10" fill="#3657CB"/>
<path d="M24.8086 21.375H22.1719V29.25H18.6562V21.375H15.8086V18.1055H18.6562V15.6445C18.6562 14.707 18.832 13.9102 19.1836 13.2539C19.5352 12.5977 20.0273 12.1055 20.6602 11.7773C21.3164 11.4258 22.0664 11.25 22.9102 11.25C23.2852 11.25 23.6836 11.2734 24.1055 11.3203C24.5273 11.3438 24.8555 11.3789 25.0898 11.4258L25.4414 11.4609V14.2383H24.0352C23.3789 14.2383 22.8984 14.4141 22.5938 14.7656C22.3125 15.0938 22.1719 15.5039 22.1719 15.9961V18.1055H25.3008L24.8086 21.375Z" fill="white"/>
</svg>
