<svg width="41" height="41" viewBox="0 0 41 41" fill="none" xmlns="http://www.w3.org/2000/svg">
<rect width="41" height="41" rx="10" fill="#1E2538"/>
<path d="M29.1562 20.4609C29.1562 22.9453 28.3711 24.9844 26.8008 26.5781C25.2539 28.1719 23.2266 28.9688 20.7188 28.9688C18.3047 28.9688 16.2422 28.125 14.5312 26.4375C12.8438 24.7266 12 22.6641 12 20.25C12 17.8359 12.8438 15.7852 14.5312 14.0977C16.2422 12.3867 18.3047 11.5312 20.7188 11.5312C22.9922 11.5312 24.9375 12.293 26.5547 13.8164L24.1992 16.1016C23.4492 15.375 22.5469 14.9531 21.4922 14.8359C20.4609 14.6953 19.4883 14.8242 18.5742 15.2227C17.6836 15.5977 16.9102 16.2422 16.2539 17.1562C15.6211 18.0469 15.3047 19.0781 15.3047 20.25C15.3047 21.7734 15.832 23.0742 16.8867 24.1523C17.9414 25.2305 19.2188 25.7695 20.7188 25.7695C21.5391 25.7695 22.2656 25.6406 22.8984 25.3828C23.5547 25.1016 24.0586 24.7617 24.4102 24.3633C24.7852 23.9414 25.0664 23.5312 25.2539 23.1328C25.4648 22.7344 25.6055 22.3594 25.6758 22.0078H20.7188V18.9844H29.0156C29.1094 19.5 29.1562 19.9922 29.1562 20.4609Z" fill="white"/>
</svg>
