<svg width="41" height="41" viewBox="0 0 41 41" fill="none" xmlns="http://www.w3.org/2000/svg">
<rect width="41" height="41" rx="10" fill="#1E2538"/>
<path d="M28.1367 16.5938C28.1602 16.6875 28.1719 16.8398 28.1719 17.0508C28.1719 18.293 27.9375 19.5352 27.4688 20.7773C27 21.9961 26.332 23.1211 25.4648 24.1523C24.6211 25.1602 23.5195 25.9805 22.1602 26.6133C20.8008 27.2461 19.3008 27.5625 17.6602 27.5625C15.5977 27.5625 13.7109 27.0117 12 25.9102C12.2578 25.9336 12.5508 25.9453 12.8789 25.9453C14.5898 25.9453 16.125 25.418 17.4844 24.3633C16.6641 24.3633 15.9375 24.1289 15.3047 23.6602C14.6953 23.168 14.2734 22.5586 14.0391 21.832C14.2734 21.8555 14.4961 21.8672 14.707 21.8672C15.0352 21.8672 15.3633 21.832 15.6914 21.7617C15.1289 21.6445 14.625 21.4102 14.1797 21.0586C13.7344 20.707 13.3828 20.2852 13.125 19.793C12.8672 19.2773 12.7383 18.7266 12.7383 18.1406V18.0703C13.2539 18.375 13.8047 18.5391 14.3906 18.5625C13.2891 17.8125 12.7383 16.7812 12.7383 15.4688C12.7383 14.8125 12.9141 14.1914 13.2656 13.6055C14.1797 14.7539 15.293 15.668 16.6055 16.3477C17.9414 17.0273 19.3594 17.4023 20.8594 17.4727C20.8125 17.1914 20.7891 16.9102 20.7891 16.6289C20.7891 15.6211 21.1406 14.7539 21.8438 14.0273C22.5703 13.3008 23.4375 12.9375 24.4453 12.9375C25.5234 12.9375 26.4258 13.3242 27.1523 14.0977C27.9961 13.9336 28.7812 13.6406 29.5078 13.2188C29.2266 14.0859 28.6875 14.7656 27.8906 15.2578C28.5938 15.1641 29.2969 14.9648 30 14.6602C29.4844 15.4102 28.8633 16.0547 28.1367 16.5938Z" fill="white"/>
</svg>
