<svg width="41" height="41" viewBox="0 0 41 41" fill="none" xmlns="http://www.w3.org/2000/svg">
<rect width="41" height="41" rx="10" fill="#1E2538"/>
<path d="M29.1602 15.3984C29.0898 15.75 28.8086 16.3242 28.3164 17.1211C27.8477 17.918 27.4141 18.6211 27.0156 19.2305C26.6172 19.8164 26.4062 20.1211 26.3828 20.1445C26.2422 20.3555 26.1719 20.5078 26.1719 20.6016C26.1719 20.6953 26.2422 20.8594 26.3828 21.0938C26.3828 21.0938 26.4531 21.1758 26.5938 21.3398C26.7578 21.5039 26.9453 21.6914 27.1562 21.9023C27.3672 22.1133 27.6016 22.3594 27.8594 22.6406C28.1172 22.9219 28.3516 23.2031 28.5625 23.4844C28.7969 23.7422 28.9961 24.0117 29.1602 24.293C29.3477 24.5742 29.4766 24.8086 29.5469 24.9961C29.7109 25.582 29.4766 25.875 28.8438 25.875H26.7695C26.6055 25.875 26.4648 25.8516 26.3477 25.8047C26.2305 25.7578 26.1016 25.6758 25.9609 25.5586C25.8203 25.4414 25.6914 25.3125 25.5742 25.1719C25.457 25.0312 25.2812 24.832 25.0469 24.5742C24.8125 24.3164 24.5781 24.0703 24.3438 23.8359C23.4062 22.9453 22.7148 22.5 22.2695 22.5C21.9883 22.5 21.8242 22.582 21.7773 22.7461C21.7305 22.9102 21.707 23.3789 21.707 24.1523C21.7305 24.5273 21.7422 24.832 21.7422 25.0664C21.7422 25.3477 21.6484 25.5586 21.4609 25.6992C21.2734 25.8164 20.8633 25.875 20.2305 25.875C19.1289 25.875 18.0156 25.5469 16.8906 24.8906C15.7656 24.2344 14.7812 23.2969 13.9375 22.0781C13.1406 21 12.4727 19.9336 11.9336 18.8789C11.418 17.8008 11.0781 16.9805 10.9141 16.418C10.75 15.8555 10.668 15.457 10.668 15.2227C10.668 14.8242 10.9023 14.625 11.3711 14.625H13.4453C13.7031 14.625 13.8906 14.6836 14.0078 14.8008C14.1484 14.918 14.2656 15.1289 14.3594 15.4336C14.8516 16.8633 15.4492 18.1406 16.1523 19.2656C16.8789 20.3906 17.4297 20.9531 17.8047 20.9531C17.9453 20.9531 18.0391 20.9062 18.0859 20.8125C18.1562 20.6953 18.1914 20.4844 18.1914 20.1797V17.1211C18.168 16.793 18.1094 16.5117 18.0156 16.2773C17.9219 16.043 17.8281 15.8789 17.7344 15.7852C17.6406 15.668 17.5469 15.5508 17.4531 15.4336C17.3828 15.3164 17.3477 15.2109 17.3477 15.1172C17.3477 15.0234 17.3711 14.9414 17.418 14.8711C17.4648 14.8008 17.5234 14.7422 17.5938 14.6953C17.6875 14.6484 17.7812 14.625 17.875 14.625H21.1445C21.5195 14.625 21.707 14.8828 21.707 15.3984V19.4766C21.707 19.875 21.8125 20.0742 22.0234 20.0742C22.2578 20.0742 22.5859 19.8633 23.0078 19.4414C23.4531 18.9492 23.8867 18.3516 24.3086 17.6484C24.7305 16.9453 25.0469 16.3594 25.2578 15.8906L25.5742 15.2227C25.7383 14.8242 26.0312 14.625 26.4531 14.625H28.5273C29.0898 14.625 29.3008 14.8828 29.1602 15.3984Z" fill="white"/>
</svg>
